<mxfile host="app.diagrams.net" modified="2021-11-14T14:04:56.040Z" agent="5.0 (Windows NT 10.0; Win64; x64) AppleWebKit/537.36 (KHTML, like Gecko) Chrome/95.0.4638.69 Safari/537.36 Edg/95.0.1020.53" etag="H6X_YZz7FErB_YXoftOs" version="15.1.4" type="github">
  <diagram id="Zf2Hgj7KnCBRml_kmFyM" name="Page-1">
    <mxGraphModel dx="1550" dy="867" grid="0" gridSize="10" guides="1" tooltips="1" connect="1" arrows="1" fold="1" page="1" pageScale="1" pageWidth="1169" pageHeight="1654" math="0" shadow="0">
      <root>
        <mxCell id="0" />
        <mxCell id="1" parent="0" />
        <mxCell id="TON6g9li_GSsWZoLbQqP-30" value="" style="shape=table;startSize=0;container=1;collapsible=0;childLayout=tableLayout;" vertex="1" parent="1">
          <mxGeometry x="430" y="420" width="300" height="40" as="geometry" />
        </mxCell>
        <mxCell id="TON6g9li_GSsWZoLbQqP-31" value="" style="shape=partialRectangle;collapsible=0;dropTarget=0;pointerEvents=0;fillColor=none;top=0;left=0;bottom=0;right=0;points=[[0,0.5],[1,0.5]];portConstraint=eastwest;" vertex="1" parent="TON6g9li_GSsWZoLbQqP-30">
          <mxGeometry width="300" height="40" as="geometry" />
        </mxCell>
        <mxCell id="TON6g9li_GSsWZoLbQqP-32" value="1" style="shape=partialRectangle;html=1;whiteSpace=wrap;connectable=0;overflow=hidden;fillColor=none;top=0;left=0;bottom=0;right=0;pointerEvents=1;" vertex="1" parent="TON6g9li_GSsWZoLbQqP-31">
          <mxGeometry width="60" height="40" as="geometry" />
        </mxCell>
        <mxCell id="TON6g9li_GSsWZoLbQqP-33" value="-4" style="shape=partialRectangle;html=1;whiteSpace=wrap;connectable=0;overflow=hidden;fillColor=none;top=0;left=0;bottom=0;right=0;pointerEvents=1;" vertex="1" parent="TON6g9li_GSsWZoLbQqP-31">
          <mxGeometry x="60" width="60" height="40" as="geometry" />
        </mxCell>
        <mxCell id="TON6g9li_GSsWZoLbQqP-34" value="6" style="shape=partialRectangle;html=1;whiteSpace=wrap;connectable=0;overflow=hidden;fillColor=none;top=0;left=0;bottom=0;right=0;pointerEvents=1;" vertex="1" parent="TON6g9li_GSsWZoLbQqP-31">
          <mxGeometry x="120" width="60" height="40" as="geometry" />
        </mxCell>
        <mxCell id="TON6g9li_GSsWZoLbQqP-35" value="-4" style="shape=partialRectangle;html=1;whiteSpace=wrap;connectable=0;overflow=hidden;fillColor=none;top=0;left=0;bottom=0;right=0;pointerEvents=1;" vertex="1" parent="TON6g9li_GSsWZoLbQqP-31">
          <mxGeometry x="180" width="60" height="40" as="geometry" />
        </mxCell>
        <mxCell id="TON6g9li_GSsWZoLbQqP-36" value="1" style="shape=partialRectangle;html=1;whiteSpace=wrap;connectable=0;overflow=hidden;fillColor=none;top=0;left=0;bottom=0;right=0;pointerEvents=1;" vertex="1" parent="TON6g9li_GSsWZoLbQqP-31">
          <mxGeometry x="240" width="60" height="40" as="geometry" />
        </mxCell>
        <mxCell id="TON6g9li_GSsWZoLbQqP-58" value="" style="shape=table;startSize=0;container=1;collapsible=0;childLayout=tableLayout;" vertex="1" parent="1">
          <mxGeometry x="430" y="480" width="300" height="40" as="geometry" />
        </mxCell>
        <mxCell id="TON6g9li_GSsWZoLbQqP-59" value="" style="shape=partialRectangle;collapsible=0;dropTarget=0;pointerEvents=0;fillColor=none;top=0;left=0;bottom=0;right=0;points=[[0,0.5],[1,0.5]];portConstraint=eastwest;" vertex="1" parent="TON6g9li_GSsWZoLbQqP-58">
          <mxGeometry width="300" height="40" as="geometry" />
        </mxCell>
        <mxCell id="TON6g9li_GSsWZoLbQqP-60" value="1" style="shape=partialRectangle;html=1;whiteSpace=wrap;connectable=0;overflow=hidden;fillColor=none;top=0;left=0;bottom=0;right=0;pointerEvents=1;" vertex="1" parent="TON6g9li_GSsWZoLbQqP-59">
          <mxGeometry width="60" height="40" as="geometry" />
        </mxCell>
        <mxCell id="TON6g9li_GSsWZoLbQqP-61" value="-4" style="shape=partialRectangle;html=1;whiteSpace=wrap;connectable=0;overflow=hidden;fillColor=none;top=0;left=0;bottom=0;right=0;pointerEvents=1;" vertex="1" parent="TON6g9li_GSsWZoLbQqP-59">
          <mxGeometry x="60" width="60" height="40" as="geometry" />
        </mxCell>
        <mxCell id="TON6g9li_GSsWZoLbQqP-62" value="6" style="shape=partialRectangle;html=1;whiteSpace=wrap;connectable=0;overflow=hidden;fillColor=none;top=0;left=0;bottom=0;right=0;pointerEvents=1;" vertex="1" parent="TON6g9li_GSsWZoLbQqP-59">
          <mxGeometry x="120" width="60" height="40" as="geometry" />
        </mxCell>
        <mxCell id="TON6g9li_GSsWZoLbQqP-63" value="0" style="shape=partialRectangle;html=1;whiteSpace=wrap;connectable=0;overflow=hidden;fillColor=none;top=0;left=0;bottom=0;right=0;pointerEvents=1;" vertex="1" parent="TON6g9li_GSsWZoLbQqP-59">
          <mxGeometry x="180" width="60" height="40" as="geometry" />
        </mxCell>
        <mxCell id="TON6g9li_GSsWZoLbQqP-64" value="-4" style="shape=partialRectangle;html=1;whiteSpace=wrap;connectable=0;overflow=hidden;fillColor=none;top=0;left=0;bottom=0;right=0;pointerEvents=1;" vertex="1" parent="TON6g9li_GSsWZoLbQqP-59">
          <mxGeometry x="240" width="60" height="40" as="geometry" />
        </mxCell>
        <mxCell id="TON6g9li_GSsWZoLbQqP-69" value="pKernel" style="text;html=1;align=center;verticalAlign=middle;resizable=0;points=[];autosize=1;strokeColor=none;fillColor=none;" vertex="1" parent="1">
          <mxGeometry x="740" y="430" width="60" height="20" as="geometry" />
        </mxCell>
        <mxCell id="TON6g9li_GSsWZoLbQqP-70" value="pCoeff" style="text;html=1;align=center;verticalAlign=middle;resizable=0;points=[];autosize=1;strokeColor=none;fillColor=none;" vertex="1" parent="1">
          <mxGeometry x="745" y="490" width="50" height="20" as="geometry" />
        </mxCell>
        <mxCell id="TON6g9li_GSsWZoLbQqP-72" value="" style="endArrow=none;dashed=1;html=1;dashPattern=1 3;strokeWidth=2;" edge="1" parent="1">
          <mxGeometry width="50" height="50" relative="1" as="geometry">
            <mxPoint x="580" y="560" as="sourcePoint" />
            <mxPoint x="580" y="390" as="targetPoint" />
          </mxGeometry>
        </mxCell>
        <mxCell id="TON6g9li_GSsWZoLbQqP-73" value="" style="endArrow=classic;html=1;exitX=0.099;exitY=0.975;exitDx=0;exitDy=0;exitPerimeter=0;" edge="1" parent="1" source="TON6g9li_GSsWZoLbQqP-31">
          <mxGeometry width="50" height="50" relative="1" as="geometry">
            <mxPoint x="560" y="600" as="sourcePoint" />
            <mxPoint x="460" y="480" as="targetPoint" />
          </mxGeometry>
        </mxCell>
        <mxCell id="TON6g9li_GSsWZoLbQqP-76" value="" style="endArrow=classic;html=1;exitX=0.296;exitY=1.055;exitDx=0;exitDy=0;exitPerimeter=0;entryX=0.299;entryY=-0.005;entryDx=0;entryDy=0;entryPerimeter=0;" edge="1" parent="1" source="TON6g9li_GSsWZoLbQqP-31" target="TON6g9li_GSsWZoLbQqP-59">
          <mxGeometry width="50" height="50" relative="1" as="geometry">
            <mxPoint x="560" y="600" as="sourcePoint" />
            <mxPoint x="610" y="550" as="targetPoint" />
          </mxGeometry>
        </mxCell>
        <mxCell id="TON6g9li_GSsWZoLbQqP-77" value="" style="endArrow=classic;html=1;entryX=0.904;entryY=-0.025;entryDx=0;entryDy=0;entryPerimeter=0;" edge="1" parent="1" target="TON6g9li_GSsWZoLbQqP-59">
          <mxGeometry width="50" height="50" relative="1" as="geometry">
            <mxPoint x="640" y="459" as="sourcePoint" />
            <mxPoint x="610" y="550" as="targetPoint" />
          </mxGeometry>
        </mxCell>
        <mxCell id="TON6g9li_GSsWZoLbQqP-78" value="" style="endArrow=classic;html=1;" edge="1" parent="1">
          <mxGeometry width="50" height="50" relative="1" as="geometry">
            <mxPoint x="580" y="460" as="sourcePoint" />
            <mxPoint x="580" y="480" as="targetPoint" />
          </mxGeometry>
        </mxCell>
      </root>
    </mxGraphModel>
  </diagram>
</mxfile>
